<svg xmlns="http://www.w3.org/2000/svg" xmlns:xlink="http://www.w3.org/1999/xlink" viewBox="0 0 90 85.73"><defs><style>.cls-1{fill:url(#linear-gradient);}.cls-2{fill:url(#linear-gradient-2);}.cls-3{fill:url(#linear-gradient-3);}</style><linearGradient id="linear-gradient" x1="63.03" y1="598.66" x2="26.73" y2="634.95" gradientTransform="matrix(1, 0, 0, -1, 0, 659.73)" gradientUnits="userSpaceOnUse"><stop offset="0" stop-color="#fff"/><stop offset="0.24" stop-color="#f2f2f2"/><stop offset="1" stop-color="#ccc"/></linearGradient><linearGradient id="linear-gradient-2" x1="30.26" y1="631.42" x2="56.12" y2="605.57" gradientTransform="matrix(1, 0, 0, -1, 0, 659.73)" gradientUnits="userSpaceOnUse"><stop offset="0" stop-color="#0d61a9"/><stop offset="0.36" stop-color="#0e5fa4"/><stop offset="0.78" stop-color="#135796"/><stop offset="1" stop-color="#16528c"/></linearGradient><linearGradient id="linear-gradient-3" x1="2.98" y1="658.66" x2="76.69" y2="584.96" gradientTransform="matrix(1, 0, 0, -1, 0, 659.73)" gradientUnits="userSpaceOnUse"><stop offset="0" stop-color="#889097"/><stop offset="0.33" stop-color="#848c94"/><stop offset="0.67" stop-color="#78828b"/><stop offset="1" stop-color="#64717c"/></linearGradient></defs><g id="Layer_2" data-name="Layer 2"><g id="Layer_1-2" data-name="Layer 1"><circle class="cls-1" cx="45" cy="43.04" r="25.87"/><circle class="cls-2" cx="45" cy="43.04" r="15.75"/><path class="cls-3" d="M88.67,32.34A15.72,15.72,0,0,1,74.84,9.42,44.9,44.9,0,0,0,58.12,0,15.71,15.71,0,0,1,45,7,15.71,15.71,0,0,1,31.88,0,45,45,0,0,0,15.16,9.42,15.72,15.72,0,0,1,1.34,32.34,44.49,44.49,0,0,0,0,43a45.25,45.25,0,0,0,.82,8.45,15.73,15.73,0,0,1,14,7.87,15.71,15.71,0,0,1-.5,16.52,45,45,0,0,0,16.52,9.85,15.72,15.72,0,0,1,28.36,0A45,45,0,0,0,75.7,75.89a15.73,15.73,0,0,1,13.48-24.4,43.81,43.81,0,0,0-.51-19.15ZM45,66.67A23.63,23.63,0,1,1,68.63,43,23.62,23.62,0,0,1,45,66.67Z"/></g></g></svg>