<svg xmlns="http://www.w3.org/2000/svg" xmlns:xlink="http://www.w3.org/1999/xlink" viewBox="0 0 90 72.69"><defs><style>.cls-1{fill:url(#linear-gradient);}.cls-2{fill:url(#linear-gradient-2);}.cls-3{fill:url(#linear-gradient-3);}</style><linearGradient id="linear-gradient" x1="45" y1="44.81" x2="90" y2="44.81" gradientUnits="userSpaceOnUse"><stop offset="0" stop-color="#26abe8"/><stop offset="1" stop-color="#047ed5"/></linearGradient><linearGradient id="linear-gradient-2" x1="0" y1="44.81" x2="45" y2="44.81" xlink:href="#linear-gradient"/><linearGradient id="linear-gradient-3" y1="8.46" x2="90" y2="8.46" gradientUnits="userSpaceOnUse"><stop offset="0" stop-color="#0a7bd2"/><stop offset="1" stop-color="#0b59a2"/></linearGradient></defs><g id="Layer_2" data-name="Layer 2"><g id="Layer_1-2" data-name="Layer 1"><path class="cls-1" d="M45,16.92H90a0,0,0,0,1,0,0V69.51a3.19,3.19,0,0,1-3.19,3.19H45a0,0,0,0,1,0,0V16.92A0,0,0,0,1,45,16.92Z"/><path class="cls-2" d="M0,16.92H45a0,0,0,0,1,0,0V72.69a0,0,0,0,1,0,0H3.19A3.19,3.19,0,0,1,0,69.51V16.92A0,0,0,0,1,0,16.92Z"/><path class="cls-3" d="M84.27,0H5.73C2.56,0,0,2.07,0,4.62v12.3H90V4.62C90,2.07,87.44,0,84.27,0Z"/></g></g></svg>